<svg fill="none" height="12" viewBox="0 0 12 12" width="12" xmlns="http://www.w3.org/2000/svg">
	<mask fill="white" id="path-1-inside-1_2897_27231">
		<path clip-rule="evenodd" d="M9.40602 6.84956L6.46113 11.2669C6.24151 11.5963 5.75744 11.5963 5.53783 11.2669L2.59293 6.84956C0.779074 4.12877 2.72949 0.484375 5.99948 0.484375C9.26946 0.484375 11.2199 4.12877 9.40602 6.84956ZM5.99883 6.43516C6.93771 6.43516 7.69883 5.67404 7.69883 4.73516C7.69883 3.79627 6.93771 3.03516 5.99883 3.03516C5.05994 3.03516 4.29883 3.79627 4.29883 4.73516C4.29883 5.67404 5.05994 6.43516 5.99883 6.43516Z"
			fill-rule="evenodd" />
	</mask>
	<path clip-rule="evenodd" d="M9.40602 6.84956L6.46113 11.2669C6.24151 11.5963 5.75744 11.5963 5.53783 11.2669L2.59293 6.84956C0.779074 4.12877 2.72949 0.484375 5.99948 0.484375C9.26946 0.484375 11.2199 4.12877 9.40602 6.84956ZM5.99883 6.43516C6.93771 6.43516 7.69883 5.67404 7.69883 4.73516C7.69883 3.79627 6.93771 3.03516 5.99883 3.03516C5.05994 3.03516 4.29883 3.79627 4.29883 4.73516C4.29883 5.67404 5.05994 6.43516 5.99883 6.43516Z"
		fill="black"
		fill-rule="evenodd" />
	<path
		d="M6.46113 11.2669L5.83709 10.8509L5.83709 10.8509L6.46113 11.2669ZM9.40602 6.84956L10.0301 7.26558L9.40602 6.84956ZM5.53783 11.2669L4.91379 11.6829L4.91379 11.6829L5.53783 11.2669ZM2.59293 6.84956L3.21697 6.43353L2.59293 6.84956ZM7.08517 11.6829L10.0301 7.26558L8.78198 6.43353L5.83709 10.8509L7.08517 11.6829ZM4.91379 11.6829C5.43027 12.4576 6.56868 12.4576 7.08517 11.6829L5.83709 10.8509C5.91434 10.735 6.08461 10.735 6.16186 10.8509L4.91379 11.6829ZM1.9689 7.26558L4.91379 11.6829L6.16186 10.8509L3.21697 6.43353L1.9689 7.26558ZM5.99948 -0.265625C2.13047 -0.265625 -0.177242 4.04638 1.9689 7.26558L3.21697 6.43353C1.73539 4.21116 3.32852 1.23438 5.99948 1.23438V-0.265625ZM10.0301 7.26558C12.1762 4.04638 9.86848 -0.265625 5.99948 -0.265625V1.23438C8.67044 1.23438 10.2636 4.21116 8.78198 6.43353L10.0301 7.26558ZM6.94883 4.73516C6.94883 5.25983 6.5235 5.68516 5.99883 5.68516V7.18516C7.35193 7.18516 8.44883 6.08825 8.44883 4.73516H6.94883ZM5.99883 3.78516C6.5235 3.78516 6.94883 4.21049 6.94883 4.73516H8.44883C8.44883 3.38206 7.35193 2.28516 5.99883 2.28516V3.78516ZM5.04883 4.73516C5.04883 4.21049 5.47416 3.78516 5.99883 3.78516V2.28516C4.64573 2.28516 3.54883 3.38206 3.54883 4.73516H5.04883ZM5.99883 5.68516C5.47416 5.68516 5.04883 5.25983 5.04883 4.73516H3.54883C3.54883 6.08825 4.64573 7.18516 5.99883 7.18516V5.68516Z"
		fill="black" mask="url(#path-1-inside-1_2897_27231)" />
</svg>
